<svg xmlns="http://www.w3.org/2000/svg" type="tree" y="27.856250762939453" width="1000" height="1000"><svg type="node" cat="s" x="148.078125"><svg type="fs" label="Q" x="0"><svg type="feature" y="3"><text font-size="13" y="14" font-variant="normal" x="5">CAT</text><svg type="value" x="37.4375"><text y="0.9em" font-size="15" x="0">s</text></svg></svg><svg type="feature" y="24.65625"><text font-size="13" y="148.546875" font-variant="normal" x="5">BOT</text><svg type="value" x="37.4375"><svg type="fs" label="R" x="15.65625"><svg type="feature" y="3"><text font-size="13" y="12.271874904632568" font-variant="normal" x="5">AGR</text><svg type="value" label="H" x="104.625"><text y="0.9em" font-size="15" x="10"/><svg type="label"><text font-size="11" text-anchor="start" x="2" y="1.2em">H</text><rect x="1" y="1.9875" width="10" height="13.2" name="H" style="stroke:black; fill:transparent;"/></svg></svg></svg><svg type="feature" y="22.921875"><text font-size="13" y="12.271874904632568" font-variant="normal" x="5">ASSIGN-CASE</text><svg type="value" label="J" x="104.625"><text y="0.9em" font-size="15" x="7.5"/><svg type="label"><text font-size="11" text-anchor="start" x="2" y="1.2em">J</text><rect x="1" y="1.9875" width="7.5" height="13.2" name="J" style="stroke:black; fill:transparent;"/></svg></svg></svg><svg type="feature" y="42.84375"><text font-size="13" y="12.271874904632568" font-variant="normal" x="5">ASSIGN-COMP</text><svg type="value" label="I" x="104.625"><text y="0.9em" font-size="15" x="5.046875"/><svg type="label"><text font-size="11" text-anchor="start" x="2" y="1.2em">I</text><rect x="1" y="1.9875" width="5.046875" height="13.2" name="I" style="stroke:black; fill:transparent;"/></svg></svg></svg><svg type="feature" y="62.765625"><text font-size="13" y="14" font-variant="normal" x="5">COMP</text><svg type="value" x="104.625"><text y="0.9em" font-size="15" x="0">nil</text></svg></svg><svg type="feature" y="84.421875"><text font-size="13" y="12.271874904632568" font-variant="normal" x="5">CONTROL</text><svg type="value" label="A" x="104.625"><text y="0.9em" font-size="15" x="10.65625"/><svg type="label"><text font-size="11" text-anchor="start" x="2" y="1.2em">A</text><rect x="1" y="1.9875" width="10.65625" height="13.2" name="A" style="stroke:black; fill:transparent;"/></svg></svg></svg><svg type="feature" y="104.34375"><text font-size="13" y="14" font-variant="normal" x="5">EXTRACTED</text><svg type="value" x="104.625"><text y="0.9em" font-size="15" x="0">-</text></svg></svg><svg type="feature" y="126"><text font-size="13" y="14" font-variant="normal" x="5">INV</text><svg type="value" x="104.625"><text y="0.9em" font-size="15" x="0">-</text></svg></svg><svg type="feature" y="147.65625"><text font-size="13" y="12.271874904632568" font-variant="normal" x="5">MAINV</text><svg type="value" label="E" x="104.625"><text y="0.9em" font-size="15" x="9.328125"/><svg type="label"><text font-size="11" text-anchor="start" x="2" y="1.2em">E</text><rect x="1" y="1.9875" width="9.328125" height="13.2" name="E" style="stroke:black; fill:transparent;"/></svg></svg></svg><svg type="feature" y="167.578125"><text font-size="13" y="12.271874904632568" font-variant="normal" x="5">MODE</text><svg type="value" label="F" x="104.625"><text y="0.9em" font-size="15" x="8.71875"/><svg type="label"><text font-size="11" text-anchor="start" x="2" y="1.2em">F</text><rect x="1" y="1.9875" width="8.71875" height="13.2" name="F" style="stroke:black; fill:transparent;"/></svg></svg></svg><svg type="feature" y="187.5"><text font-size="13" y="12.271874904632568" font-variant="normal" x="5">PASSIVE</text><svg type="value" label="D" x="104.625"><text y="0.9em" font-size="15" x="10"/><svg type="label"><text font-size="11" text-anchor="start" x="2" y="1.2em">D</text><rect x="1" y="1.9875" width="10" height="13.2" name="D" style="stroke:black; fill:transparent;"/></svg></svg></svg><svg type="feature" y="207.421875"><text font-size="13" y="12.271874904632568" font-variant="normal" x="5">PERFECT</text><svg type="value" label="C" x="104.625"><text y="0.9em" font-size="15" x="10"/><svg type="label"><text font-size="11" text-anchor="start" x="2" y="1.2em">C</text><rect x="1" y="1.9875" width="10" height="13.2" name="C" style="stroke:black; fill:transparent;"/></svg></svg></svg><svg type="feature" y="227.34375"><text font-size="13" y="12.271874904632568" font-variant="normal" x="5">PROGRESSIVE</text><svg type="value" label="B" x="104.625"><text y="0.9em" font-size="15" x="9.328125"/><svg type="label"><text font-size="11" text-anchor="start" x="2" y="1.2em">B</text><rect x="1" y="1.9875" width="9.328125" height="13.2" name="B" style="stroke:black; fill:transparent;"/></svg></svg></svg><svg type="feature" y="247.265625"><text font-size="13" y="12.271874904632568" font-variant="normal" x="5">TENSE</text><svg type="value" label="G" x="104.625"><text y="0.9em" font-size="15" x="10.65625"/><svg type="label"><text font-size="11" text-anchor="start" x="2" y="1.2em">G</text><rect x="1" y="1.9875" width="10.65625" height="13.2" name="G" style="stroke:black; fill:transparent;"/></svg></svg></svg><svg type="feature" y="267.1875"><text font-size="13" y="14" font-variant="normal" x="5">WH</text><svg type="value" x="104.625"><text y="0.9em" font-size="15" x="0">-</text></svg></svg><path d="M 2 2 H 7 M 2 2 L 2 287.75 H 7" style="stroke:black; fill:none;"/><path d="M 124.296875 2 H 117.296875 M 124.296875 2 L 124.296875 287.75 H 117.296875" style="stroke:black; fill:none;"/></svg><svg type="label" y="134.27500009536743"><text font-size="11" text-anchor="start" x="2" y="1.2em">R</text><rect x="1" y="1.9875" width="10.65625" height="13.2" name="R" style="stroke:black; fill:transparent;"/></svg></svg></svg><path d="M 2 2 H 7 M 2 2 L 2 316.234375 H 7" style="stroke:black; fill:none;"/><path d="M 181.390625 2 H 174.390625 M 181.390625 2 L 181.390625 316.234375 H 174.390625" style="stroke:black; fill:none;"/></svg><text x="0" y="25" font-size="25" text-anchor="start" style="text-transform: uppercase;" display="none" type="catlabel">s</text></svg><svg type="children" x="0" y="364.234375"><svg type="tree" x="0"><svg type="node" mark="subst" cat="np" x="0"><svg type="fs" label="S" x="0"><svg type="feature" y="3"><text font-size="13" y="46.3359375" font-variant="normal" x="5">TOP</text><svg type="value" x="36.484375"><svg type="fs" label="T" x="14.328125"><svg type="feature" y="3"><text font-size="13" y="12.271874904632568" font-variant="normal" x="5">AGR</text><svg type="value" label="H" x="73.65625"><text y="0.9em" font-size="15" x="10"/><svg type="label"><text font-size="11" text-anchor="start" x="2" y="1.2em">H</text><rect x="1" y="1.9875" width="10" height="13.2" name="H" style="stroke:black; fill:transparent;"/></svg></svg></svg><svg type="feature" y="22.921875"><text font-size="13" y="12.271874904632568" font-variant="normal" x="5">CASE</text><svg type="value" label="J" x="73.65625"><text y="0.9em" font-size="15" x="7.5"/><svg type="label"><text font-size="11" text-anchor="start" x="2" y="1.2em">J</text><rect x="1" y="1.9875" width="7.5" height="13.2" name="J" style="stroke:black; fill:transparent;"/></svg></svg></svg><svg type="feature" y="42.84375"><text font-size="13" y="12.271874904632568" font-variant="normal" x="5">CONTROL</text><svg type="value" label="A" x="73.65625"><text y="0.9em" font-size="15" x="10.65625"/><svg type="label"><text font-size="11" text-anchor="start" x="2" y="1.2em">A</text><rect x="1" y="1.9875" width="10.65625" height="13.2" name="A" style="stroke:black; fill:transparent;"/></svg></svg></svg><svg type="feature" y="62.765625"><text font-size="13" y="14" font-variant="normal" x="5">WH</text><svg type="value" x="73.65625"><text y="0.9em" font-size="15" x="0">-</text></svg></svg><path d="M 2 2 H 7 M 2 2 L 2 83.328125 H 7" style="stroke:black; fill:none;"/><path d="M 89.984375 2 H 82.984375 M 89.984375 2 L 89.984375 83.328125 H 82.984375" style="stroke:black; fill:none;"/></svg><svg type="label" y="32.06406259536743"><text font-size="11" text-anchor="start" x="2" y="1.2em">T</text><rect x="1" y="1.9875" width="9.328125" height="13.2" name="T" style="stroke:black; fill:transparent;"/></svg></svg></svg><svg type="feature" y="89.328125"><text font-size="13" y="14" font-variant="normal" x="5">CAT</text><svg type="value" x="36.484375"><text y="0.9em" font-size="15" x="0">np</text></svg></svg><path d="M 2 2 H 7 M 2 2 L 2 108.15625 H 7" style="stroke:black; fill:none;"/><path d="M 144.796875 2 H 137.796875 M 144.796875 2 L 144.796875 108.15625 H 137.796875" style="stroke:black; fill:none;"/></svg><svg x="152.796875" type="mark"><path d="M 5 0 L 5 20 L 0 10 M 5 20 L 10 10" style="stroke:green; fill:none;" transform="scale (.7)"/></svg><text x="0" y="25" font-size="25" text-anchor="start" style="text-transform: uppercase;" display="none" type="catlabel">np</text></svg></svg><svg type="tree" x="201.296875"><svg type="node" cat="vp" x="96.078125"><svg type="fs" label="U" x="0"><svg type="feature" y="3"><text font-size="13" y="95.3203125" font-variant="normal" x="5">TOP</text><svg type="value" x="37.4375"><svg type="fs" label="V" x="15.65625"><svg type="feature" y="3"><text font-size="13" y="12.271874904632568" font-variant="normal" x="5">AGR</text><svg type="value" label="H" x="104.625"><text y="0.9em" font-size="15" x="10"/><svg type="label"><text font-size="11" text-anchor="start" x="2" y="1.2em">H</text><rect x="1" y="1.9875" width="10" height="13.2" name="H" style="stroke:black; fill:transparent;"/></svg></svg></svg><svg type="feature" y="22.921875"><text font-size="13" y="12.271874904632568" font-variant="normal" x="5">ASSIGN-CASE</text><svg type="value" label="J" x="104.625"><text y="0.9em" font-size="15" x="7.5"/><svg type="label"><text font-size="11" text-anchor="start" x="2" y="1.2em">J</text><rect x="1" y="1.9875" width="7.5" height="13.2" name="J" style="stroke:black; fill:transparent;"/></svg></svg></svg><svg type="feature" y="42.84375"><text font-size="13" y="12.271874904632568" font-variant="normal" x="5">ASSIGN-COMP</text><svg type="value" label="I" x="104.625"><text y="0.9em" font-size="15" x="5.046875"/><svg type="label"><text font-size="11" text-anchor="start" x="2" y="1.2em">I</text><rect x="1" y="1.9875" width="5.046875" height="13.2" name="I" style="stroke:black; fill:transparent;"/></svg></svg></svg><svg type="feature" y="62.765625"><text font-size="13" y="12.271874904632568" font-variant="normal" x="5">MAINV</text><svg type="value" label="E" x="104.625"><text y="0.9em" font-size="15" x="9.328125"/><svg type="label"><text font-size="11" text-anchor="start" x="2" y="1.2em">E</text><rect x="1" y="1.9875" width="9.328125" height="13.2" name="E" style="stroke:black; fill:transparent;"/></svg></svg></svg><svg type="feature" y="82.6875"><text font-size="13" y="12.271874904632568" font-variant="normal" x="5">MODE</text><svg type="value" label="F" x="104.625"><text y="0.9em" font-size="15" x="8.71875"/><svg type="label"><text font-size="11" text-anchor="start" x="2" y="1.2em">F</text><rect x="1" y="1.9875" width="8.71875" height="13.2" name="F" style="stroke:black; fill:transparent;"/></svg></svg></svg><svg type="feature" y="102.609375"><text font-size="13" y="12.271874904632568" font-variant="normal" x="5">PASSIVE</text><svg type="value" label="D" x="104.625"><text y="0.9em" font-size="15" x="10"/><svg type="label"><text font-size="11" text-anchor="start" x="2" y="1.2em">D</text><rect x="1" y="1.9875" width="10" height="13.2" name="D" style="stroke:black; fill:transparent;"/></svg></svg></svg><svg type="feature" y="122.53125"><text font-size="13" y="12.271874904632568" font-variant="normal" x="5">PERFECT</text><svg type="value" label="C" x="104.625"><text y="0.9em" font-size="15" x="10"/><svg type="label"><text font-size="11" text-anchor="start" x="2" y="1.2em">C</text><rect x="1" y="1.9875" width="10" height="13.2" name="C" style="stroke:black; fill:transparent;"/></svg></svg></svg><svg type="feature" y="142.453125"><text font-size="13" y="12.271874904632568" font-variant="normal" x="5">PROGRESSIVE</text><svg type="value" label="B" x="104.625"><text y="0.9em" font-size="15" x="9.328125"/><svg type="label"><text font-size="11" text-anchor="start" x="2" y="1.2em">B</text><rect x="1" y="1.9875" width="9.328125" height="13.2" name="B" style="stroke:black; fill:transparent;"/></svg></svg></svg><svg type="feature" y="162.375"><text font-size="13" y="12.271874904632568" font-variant="normal" x="5">TENSE</text><svg type="value" label="G" x="104.625"><text y="0.9em" font-size="15" x="10.65625"/><svg type="label"><text font-size="11" text-anchor="start" x="2" y="1.2em">G</text><rect x="1" y="1.9875" width="10.65625" height="13.2" name="G" style="stroke:black; fill:transparent;"/></svg></svg></svg><path d="M 2 2 H 7 M 2 2 L 2 181.296875 H 7" style="stroke:black; fill:none;"/><path d="M 120.953125 2 H 113.953125 M 120.953125 2 L 120.953125 181.296875 H 113.953125" style="stroke:black; fill:none;"/></svg><svg type="label" y="81.04843759536743"><text font-size="11" text-anchor="start" x="2" y="1.2em">V</text><rect x="1" y="1.9875" width="10.65625" height="13.2" name="V" style="stroke:black; fill:transparent;"/></svg></svg></svg><svg type="feature" y="187.296875"><text font-size="13" y="14" font-variant="normal" x="5">CAT</text><svg type="value" x="37.4375"><text y="0.9em" font-size="15" x="0">vp</text></svg></svg><svg type="feature" y="208.953125"><text font-size="13" y="87.09375" font-variant="normal" x="5">BOT</text><svg type="value" x="37.4375"><svg type="fs" label="W" x="19"><svg type="feature" y="3"><text font-size="13" y="12.271874904632568" font-variant="normal" x="5">AGR</text><svg type="value" label="K" x="103.109375"><text y="0.9em" font-size="15" x="10"/><svg type="label"><text font-size="11" text-anchor="start" x="2" y="1.2em">K</text><rect x="1" y="1.9875" width="10" height="13.2" name="K" style="stroke:black; fill:transparent;"/></svg></svg></svg><svg type="feature" y="22.921875"><text font-size="13" y="12.271874904632568" font-variant="normal" x="5">ASSIGN-CASE</text><svg type="value" label="L" x="103.109375"><text y="0.9em" font-size="15" x="8.65625"/><svg type="label"><text font-size="11" text-anchor="start" x="2" y="1.2em">L</text><rect x="1" y="1.9875" width="8.65625" height="13.2" name="L" style="stroke:black; fill:transparent;"/></svg></svg></svg><svg type="feature" y="42.84375"><text font-size="13" y="12.271874904632568" font-variant="normal" x="5">ASSIGN-COMP</text><svg type="value" label="M" x="103.109375"><text y="0.9em" font-size="15" x="11.328125"/><svg type="label"><text font-size="11" text-anchor="start" x="2" y="1.2em">M</text><rect x="1" y="1.9875" width="11.328125" height="13.2" name="M" style="stroke:black; fill:transparent;"/></svg></svg></svg><svg type="feature" y="62.765625"><text font-size="13" y="14" font-variant="normal" x="5">COMPAR</text><svg type="value" x="103.109375"><text y="0.9em" font-size="15" x="0">-</text></svg></svg><svg type="feature" y="84.421875"><text font-size="13" y="12.271874904632568" font-variant="normal" x="5">MAINV</text><svg type="value" label="P" x="103.109375"><text y="0.9em" font-size="15" x="9.328125"/><svg type="label"><text font-size="11" text-anchor="start" x="2" y="1.2em">P</text><rect x="1" y="1.9875" width="9.328125" height="13.2" name="P" style="stroke:black; fill:transparent;"/></svg></svg></svg><svg type="feature" y="104.34375"><text font-size="13" y="12.271874904632568" font-variant="normal" x="5">MODE</text><svg type="value" label="N" x="103.109375"><text y="0.9em" font-size="15" x="10"/><svg type="label"><text font-size="11" text-anchor="start" x="2" y="1.2em">N</text><rect x="1" y="1.9875" width="10" height="13.2" name="N" style="stroke:black; fill:transparent;"/></svg></svg></svg><svg type="feature" y="124.265625"><text font-size="13" y="14" font-variant="normal" x="5">PASSIVE</text><svg type="value" x="103.109375"><text y="0.9em" font-size="15" x="0">-</text></svg></svg><svg type="feature" y="145.921875"><text font-size="13" y="12.271874904632568" font-variant="normal" x="5">TENSE</text><svg type="value" label="O" x="103.109375"><text y="0.9em" font-size="15" x="10.65625"/><svg type="label"><text font-size="11" text-anchor="start" x="2" y="1.2em">O</text><rect x="1" y="1.9875" width="10.65625" height="13.2" name="O" style="stroke:black; fill:transparent;"/></svg></svg></svg><path d="M 2 2 H 7 M 2 2 L 2 164.84375 H 7" style="stroke:black; fill:none;"/><path d="M 120.109375 2 H 113.109375 M 120.109375 2 L 120.109375 164.84375 H 113.109375" style="stroke:black; fill:none;"/></svg><svg type="label" y="72.82187509536743"><text font-size="11" text-anchor="start" x="2" y="1.2em">W</text><rect x="1" y="1.9875" width="14" height="13.2" name="W" style="stroke:black; fill:transparent;"/></svg></svg></svg><path d="M 2 2 H 7 M 2 2 L 2 375.796875 H 7" style="stroke:black; fill:none;"/><path d="M 180.546875 2 H 173.546875 M 180.546875 2 L 180.546875 375.796875 H 173.546875" style="stroke:black; fill:none;"/></svg><text x="0" y="25" font-size="25" text-anchor="start" style="text-transform: uppercase;" display="none" type="catlabel">vp</text></svg><svg type="children" x="0" y="423.796875"><svg type="tree" x="0"><svg type="node" mark="anchor" cat="v" x="0"><svg type="fs" label="X" x="0"><svg type="feature" y="3"><text font-size="13" y="76.265625" font-variant="normal" x="5">TOP</text><svg type="value" x="36.484375"><svg type="fs" label="Y" x="15.65625"><svg type="feature" y="3"><text font-size="13" y="12.271874904632568" font-variant="normal" x="5">AGR</text><svg type="value" label="K" x="103.109375"><text y="0.9em" font-size="15" x="10"/><svg type="label"><text font-size="11" text-anchor="start" x="2" y="1.2em">K</text><rect x="1" y="1.9875" width="10" height="13.2" name="K" style="stroke:black; fill:transparent;"/></svg></svg></svg><svg type="feature" y="22.921875"><text font-size="13" y="12.271874904632568" font-variant="normal" x="5">ASSIGN-CASE</text><svg type="value" label="L" x="103.109375"><text y="0.9em" font-size="15" x="8.65625"/><svg type="label"><text font-size="11" text-anchor="start" x="2" y="1.2em">L</text><rect x="1" y="1.9875" width="8.65625" height="13.2" name="L" style="stroke:black; fill:transparent;"/></svg></svg></svg><svg type="feature" y="42.84375"><text font-size="13" y="12.271874904632568" font-variant="normal" x="5">ASSIGN-COMP</text><svg type="value" label="M" x="103.109375"><text y="0.9em" font-size="15" x="11.328125"/><svg type="label"><text font-size="11" text-anchor="start" x="2" y="1.2em">M</text><rect x="1" y="1.9875" width="11.328125" height="13.2" name="M" style="stroke:black; fill:transparent;"/></svg></svg></svg><svg type="feature" y="62.765625"><text font-size="13" y="12.271874904632568" font-variant="normal" x="5">MAINV</text><svg type="value" label="P" x="103.109375"><text y="0.9em" font-size="15" x="9.328125"/><svg type="label"><text font-size="11" text-anchor="start" x="2" y="1.2em">P</text><rect x="1" y="1.9875" width="9.328125" height="13.2" name="P" style="stroke:black; fill:transparent;"/></svg></svg></svg><svg type="feature" y="82.6875"><text font-size="13" y="12.271874904632568" font-variant="normal" x="5">MODE</text><svg type="value" label="N" x="103.109375"><text y="0.9em" font-size="15" x="10"/><svg type="label"><text font-size="11" text-anchor="start" x="2" y="1.2em">N</text><rect x="1" y="1.9875" width="10" height="13.2" name="N" style="stroke:black; fill:transparent;"/></svg></svg></svg><svg type="feature" y="102.609375"><text font-size="13" y="14" font-variant="normal" x="5">PASSIVE</text><svg type="value" x="103.109375"><text y="0.9em" font-size="15" x="0">-</text></svg></svg><svg type="feature" y="124.265625"><text font-size="13" y="12.271874904632568" font-variant="normal" x="5">TENSE</text><svg type="value" label="O" x="103.109375"><text y="0.9em" font-size="15" x="10.65625"/><svg type="label"><text font-size="11" text-anchor="start" x="2" y="1.2em">O</text><rect x="1" y="1.9875" width="10.65625" height="13.2" name="O" style="stroke:black; fill:transparent;"/></svg></svg></svg><path d="M 2 2 H 7 M 2 2 L 2 143.1875 H 7" style="stroke:black; fill:none;"/><path d="M 120.109375 2 H 113.109375 M 120.109375 2 L 120.109375 143.1875 H 113.109375" style="stroke:black; fill:none;"/></svg><svg type="label" y="61.99375009536743"><text font-size="11" text-anchor="start" x="2" y="1.2em">Y</text><rect x="1" y="1.9875" width="10.65625" height="13.2" name="Y" style="stroke:black; fill:transparent;"/></svg></svg></svg><svg type="feature" y="149.1875"><text font-size="13" y="14" font-variant="normal" x="5">CAT</text><svg type="value" x="36.484375"><text y="0.9em" font-size="15" x="0">v</text></svg></svg><path d="M 2 2 H 7 M 2 2 L 2 168.015625 H 7" style="stroke:black; fill:none;"/><path d="M 176.25 2 H 169.25 M 176.25 2 L 176.25 168.015625 H 169.25" style="stroke:black; fill:none;"/></svg><svg x="184.25" type="mark"><path d="M 10 0 L 0 10 L 10 20 L 20 10 Z" style="stroke:green; fill:none;" transform="scale (.7)"/></svg><text x="0" y="25" font-size="25" text-anchor="start" style="text-transform: uppercase;" display="none" type="catlabel">v</text></svg></svg><svg type="tree" x="236.25"><svg type="node" mark="subst" cat="np" x="0"><svg type="fs" label="Z" x="0"><svg type="feature" y="3"><text font-size="13" y="16.5" font-variant="normal" x="5">TOP</text><svg type="value" x="36.484375"><svg type="fs" label="AA" x="23"><svg type="feature" y="3"><text font-size="13" y="14" font-variant="normal" x="5">CASE</text><svg type="value" x="45.390625"><text y="0.9em" font-size="15" x="0">acc</text></svg></svg><path d="M 2 2 H 7 M 2 2 L 2 23.65625 H 7" style="stroke:black; fill:none;"/><path d="M 73.21875 2 H 66.21875 M 73.21875 2 L 73.21875 23.65625 H 66.21875" style="stroke:black; fill:none;"/></svg><svg type="label" y="2.2281250953674316"><text font-size="11" text-anchor="start" x="2" y="1.2em">AA</text><rect x="1" y="1.9875" width="18" height="13.2" name="AA" style="stroke:black; fill:transparent;"/></svg></svg></svg><svg type="feature" y="29.65625"><text font-size="13" y="14" font-variant="normal" x="5">CAT</text><svg type="value" x="36.484375"><text y="0.9em" font-size="15" x="0">np</text></svg></svg><path d="M 2 2 H 7 M 2 2 L 2 48.484375 H 7" style="stroke:black; fill:none;"/><path d="M 136.703125 2 H 129.703125 M 136.703125 2 L 136.703125 48.484375 H 129.703125" style="stroke:black; fill:none;"/></svg><svg x="144.703125" type="mark"><path d="M 5 0 L 5 20 L 0 10 M 5 20 L 10 10" style="stroke:green; fill:none;" transform="scale (.7)"/></svg><text x="0" y="25" font-size="25" text-anchor="start" style="text-transform: uppercase;" display="none" type="catlabel">np</text></svg></svg></svg><line x1="194.5234375" x2="98.125" y1="376.796875" y2="425.796875" style="stroke:black; fill:none;" type="edge"/><line x1="194.5234375" x2="312.6015625" y1="376.796875" y2="425.796875" style="stroke:black; fill:none;" type="edge"/></svg></svg><line x1="246.9453125" x2="80.6484375" y1="317.234375" y2="366.234375" style="stroke:black; fill:none;" type="edge"/><line x1="246.9453125" x2="395.5234375" y1="317.234375" y2="366.234375" style="stroke:black; fill:none;" type="edge"/></svg>
